<?xml version="1.0" standalone="no"?>
<!DOCTYPE svg PUBLIC "-//W3C//DTD SVG 20010904//EN"
 "http://www.w3.org/TR/2001/REC-SVG-20010904/DTD/svg10.dtd">
<svg version="1.0" xmlns="http://www.w3.org/2000/svg"
 width="1857.000000pt" height="2328.000000pt" viewBox="0 0 1857.000000 2328.000000"
 preserveAspectRatio="xMidYMid meet">

<g transform="translate(0.000000,2328.000000) scale(0.100000,-0.100000)"
fill="#ffffff" stroke="none">
<path d="M5900 21503 c-14 -2 -68 -13 -120 -25 -52 -12 -99 -22 -105 -23 -25
0 -63 -48 -69 -87 -7 -42 -57 -105 -76 -93 -5 3 -10 2 -10 -4 0 -15 -62 -30
-175 -42 -348 -37 -547 -61 -597 -70 -32 -7 -60 -11 -64 -10 -3 1 -14 -8 -25
-21 -18 -20 -19 -30 -12 -83 4 -33 7 -148 5 -255 -6 -325 8 -388 79 -378 17 3
29 0 29 -6 0 -8 3 -8 8 0 9 14 169 47 184 38 6 -4 8 -3 5 3 -7 12 339 93 432
100 95 9 98 -3 31 -142 -25 -50 -70 -186 -121 -365 -44 -157 -87 -295 -95
-307 -8 -13 -12 -23 -9 -23 3 0 -7 -30 -21 -67 -152 -398 -194 -579 -151 -660
10 -18 17 -34 15 -35 -1 -2 13 -19 31 -38 18 -19 45 -51 59 -70 15 -19 35 -41
46 -49 10 -8 50 -43 89 -78 91 -81 143 -107 203 -100 90 10 133 84 165 285 39
249 50 303 148 742 12 52 48 199 81 325 32 127 72 298 89 382 49 245 66 283
139 316 41 18 74 21 262 27 249 8 301 21 364 90 113 126 113 535 -1 671 -56
66 -120 75 -209 29 -64 -34 -117 -49 -214 -60 -36 -3 -96 -15 -133 -26 -81
-22 -96 -16 -114 47 -7 24 -21 50 -30 57 -16 11 -59 14 -113 5z m545 -180
c-95 -49 -368 -130 -407 -120 -10 3 -16 2 -13 -3 2 -4 -24 -12 -58 -18 -434
-74 -614 -103 -629 -99 -10 3 -16 2 -13 -3 3 -4 -17 -11 -43 -15 -26 -3 -125
-24 -220 -46 -95 -22 -177 -37 -182 -34 -5 3 -11 1 -14 -3 -8 -13 -79 -9 -83
5 -2 6 5 16 15 22 17 9 378 88 477 104 17 3 162 30 324 61 162 31 296 54 299
51 3 -3 10 -1 16 4 6 5 119 32 251 59 346 73 354 74 280 35z"/>
<path d="M11500 21469 c-19 -5 -40 -10 -46 -11 -13 -2 -12 13 -24 -228 -5
-113 -15 -279 -21 -370 -6 -91 -17 -259 -25 -375 -19 -290 -13 -956 10 -1110
9 -60 19 -126 21 -145 5 -37 29 -141 41 -175 65 -190 92 -241 167 -314 102
-100 215 -155 382 -186 123 -23 318 -16 430 15 44 12 88 23 97 23 9 1 15 3 13
5 -2 2 23 18 56 35 82 42 169 124 229 215 27 42 56 84 63 92 6 8 11 16 9 17
-2 2 10 38 27 81 62 163 106 384 131 672 7 69 16 384 21 700 5 316 12 649 15
740 6 201 -4 254 -53 283 -67 39 -316 61 -405 37 -79 -22 -96 -93 -58 -240 33
-128 43 -367 37 -960 -4 -426 -8 -569 -21 -655 -51 -351 -150 -504 -327 -505
-59 0 -183 36 -173 51 3 5 -1 7 -8 4 -22 -9 -77 33 -109 82 -39 62 -73 174
-90 293 -31 215 -7 1226 35 1511 48 319 45 372 -19 403 -33 17 -65 20 -205 23
-91 1 -181 -2 -200 -8z m140 -980 c8 -184 51 -785 75 -1071 12 -133 -12 -55
-40 133 -33 218 -47 433 -52 799 -3 206 -3 372 1 369 3 -3 10 -106 16 -230z"/>
<path d="M13904 21460 c-59 -23 -103 -162 -128 -415 -24 -235 -22 -223 -147
-879 -81 -428 -122 -740 -123 -946 -1 -129 0 -137 27 -188 15 -30 57 -94 93
-143 36 -50 93 -140 126 -202 80 -145 118 -187 167 -187 23 0 45 7 58 19 25
23 162 83 173 76 5 -3 10 -1 12 4 4 11 182 85 368 152 92 34 163 53 225 60
164 20 189 39 206 155 12 80 4 260 -17 384 -31 182 -43 196 -169 193 -44 -1
-129 -11 -190 -22 -382 -68 -460 -81 -505 -81 -62 0 -61 -12 -16 237 41 223
52 348 67 756 18 498 -12 812 -91 942 -39 63 -97 99 -136 85z m736 -2554 c0
-8 -133 -68 -220 -100 -80 -28 -191 -73 -422 -171 -35 -14 -38 -14 -38 1 0 26
60 76 133 112 37 17 75 34 84 36 10 2 34 10 53 19 30 13 282 84 355 100 27 6
55 8 55 3z"/>
<path d="M8005 21439 c-180 -11 -338 -30 -366 -44 -45 -24 -49 -54 -49 -394 0
-425 -19 -654 -90 -1086 -34 -210 -40 -231 -126 -513 -101 -329 -121 -471 -77
-542 23 -37 148 -162 223 -222 50 -40 184 -108 213 -108 30 0 57 19 68 48 11
29 24 182 34 407 20 455 53 666 115 733 36 38 103 70 235 110 191 59 243 78
303 114 30 18 59 32 66 30 6 -2 8 -1 4 3 -4 4 14 24 40 45 181 144 245 289
244 555 -1 77 -8 166 -18 220 -9 50 -17 97 -18 105 -1 9 -5 20 -8 25 -3 6 -13
35 -23 65 -32 99 -85 192 -144 250 -91 91 -274 168 -441 187 -30 3 -62 8 -70
12 -8 3 -60 4 -115 0z m271 -604 c128 -63 197 -208 148 -311 -21 -45 -101
-116 -166 -148 -43 -22 -66 -26 -136 -26 -46 0 -92 5 -102 10 -46 24 -50 171
-10 339 29 122 43 148 82 160 49 15 125 5 184 -24z"/>
<path d="M15854 21425 c-45 -7 -113 -20 -153 -30 -39 -9 -78 -14 -87 -11 -8 3
-13 2 -10 -2 3 -5 -18 -14 -47 -21 -99 -22 -186 -52 -202 -67 -19 -19 -20 -86
-1 -122 8 -15 48 -59 89 -98 73 -68 75 -70 93 -149 25 -106 25 -478 0 -705 -9
-85 -17 -162 -18 -170 0 -8 -7 -96 -14 -195 -13 -154 -24 -265 -49 -458 -5
-39 -61 -270 -72 -297 -3 -8 -8 -49 -10 -91 l-5 -76 44 -35 c23 -20 67 -50 96
-68 28 -17 52 -36 52 -41 0 -6 4 -8 8 -5 9 5 39 -15 163 -105 35 -26 81 -56
101 -66 21 -11 36 -22 34 -24 -3 -2 22 -5 53 -7 82 -4 88 5 73 117 -26 190
-14 580 34 1176 49 617 54 684 63 945 5 146 15 281 21 301 9 32 16 38 54 48
40 10 46 16 61 56 31 80 3 165 -65 200 -36 19 -189 19 -306 0z m6 -466 c5 -30
12 -68 15 -85 2 -16 9 -103 15 -193 11 -176 1 -462 -25 -716 -24 -224 -76
-640 -82 -645 -6 -6 3 216 28 665 11 193 23 504 26 693 3 188 8 341 10 339 1
-2 7 -28 13 -58z"/>
<path d="M9939 21417 c-112 -42 -217 -166 -324 -382 -108 -220 -209 -510 -259
-745 -28 -137 -46 -183 -78 -203 -14 -9 -61 -17 -126 -20 -124 -6 -139 -16
-170 -112 -47 -143 -51 -262 -8 -290 19 -13 31 -12 101 5 87 21 109 19 126
-12 9 -16 7 -24 -9 -41 -15 -16 -28 -61 -46 -157 -66 -350 -88 -559 -67 -636
8 -30 30 -59 80 -107 112 -108 226 -146 308 -103 68 35 81 78 122 424 18 141
40 329 51 417 24 199 37 246 72 263 17 8 90 14 198 18 210 6 201 11 248 -156
18 -63 55 -187 84 -275 28 -88 52 -167 53 -175 0 -9 4 -20 7 -25 3 -6 20 -59
38 -120 66 -230 115 -365 152 -417 27 -39 71 -37 133 4 55 37 159 163 200 244
26 51 27 61 22 137 -4 55 -17 117 -41 187 -40 119 -110 392 -125 490 -14 88
-4 99 76 81 110 -26 130 -25 144 0 25 48 -13 351 -50 393 -15 17 -27 18 -156
11 -165 -8 -161 -10 -194 101 -22 74 -110 461 -156 689 -55 270 -127 433 -215
491 -49 33 -134 42 -191 21z m85 -1057 c20 -74 36 -156 36 -183 0 -64 -22 -75
-119 -59 -39 7 -94 12 -124 12 l-55 0 53 166 c30 92 71 212 91 267 l38 101 22
-85 c12 -46 38 -145 58 -219z"/>
<path d="M3731 21394 c-321 -52 -582 -226 -705 -471 -20 -39 -36 -74 -36 -77
0 -2 -5 -17 -11 -33 -7 -15 -13 -37 -14 -48 -2 -11 -8 -49 -15 -83 -18 -99
-14 -294 8 -384 11 -43 16 -78 13 -78 -3 0 -1 -4 4 -8 6 -4 27 -41 47 -82 21
-42 63 -106 93 -142 62 -76 102 -98 300 -168 206 -73 316 -136 366 -209 18
-26 24 -48 24 -90 -1 -81 -33 -134 -104 -168 -49 -24 -65 -27 -155 -26 -57 0
-169 12 -257 27 -86 14 -189 29 -230 32 -69 6 -79 4 -134 -24 -74 -37 -155
-107 -155 -133 0 -11 14 -48 31 -82 l32 -62 -7 -135 c-9 -187 -7 -193 97 -225
123 -37 371 -92 472 -106 122 -16 263 -6 364 26 44 14 84 32 88 39 4 7 35 23
68 35 187 70 317 172 393 311 90 164 121 236 136 319 19 97 21 238 5 313 -12
55 -61 162 -79 173 -6 3 -7 12 -4 18 4 7 4 9 1 6 -4 -3 -26 12 -49 34 -65 62
-157 117 -361 217 -247 120 -321 179 -378 295 -25 51 -29 72 -29 141 0 180 57
251 214 269 42 4 168 -6 241 -20 11 -2 35 -4 53 -4 22 -1 31 -5 26 -13 -4 -7
-3 -8 5 -4 6 4 44 9 84 12 93 5 106 7 104 14 -2 7 35 63 48 72 5 4 7 8 3 8 -4
0 13 42 37 93 88 186 115 306 76 341 -79 71 -482 117 -710 80z m503 -2346
c-29 -55 -54 -84 -119 -137 -61 -50 -186 -116 -235 -125 -14 -3 -25 -5 -25 -6
0 -1 -13 -3 -30 -5 -16 -2 -61 -8 -100 -15 -101 -17 -325 -15 -413 4 -82 17
-206 71 -142 61 245 -38 464 -22 687 51 56 18 125 45 153 59 27 14 50 22 50
18 0 -5 4 -3 8 2 4 6 39 32 79 58 39 26 77 55 84 63 20 24 22 8 3 -28z"/>
<path d="M6282 19237 c-24 -9 -41 -26 -60 -62 -21 -37 -35 -52 -60 -59 -18 -5
-51 -30 -75 -55 -23 -25 -46 -45 -50 -43 -5 1 -6 -1 -4 -5 3 -5 -13 -26 -34
-48 -71 -71 -103 -131 -107 -199 -3 -51 0 -67 20 -96 13 -19 40 -43 60 -53 48
-24 166 -25 243 -2 183 53 230 128 230 365 0 96 -4 136 -18 171 -31 80 -81
110 -145 86z"/>
<path d="M8620 18038 c-124 -27 -519 -112 -625 -134 -144 -30 -225 -55 -325
-99 -41 -19 -111 -43 -155 -55 -141 -37 -324 -149 -428 -261 -35 -38 -71 -69
-80 -69 -20 0 -139 -92 -252 -195 -117 -106 -183 -157 -264 -205 -125 -72
-370 -352 -445 -505 -40 -84 -271 -661 -320 -804 -52 -149 -64 -224 -81 -498
-17 -273 -39 -474 -57 -507 -10 -19 -16 -378 -11 -648 1 -38 1 -83 1 -100 0
-18 4 -72 9 -120 7 -72 13 -93 39 -130 31 -43 64 -142 64 -189 0 -14 9 -42 20
-64 11 -22 20 -44 20 -50 1 -5 37 -35 82 -64 78 -53 138 -122 138 -160 0 -9 9
-35 20 -59 26 -58 53 -55 98 12 30 45 32 54 27 101 -6 45 -3 62 25 125 37 85
39 118 11 180 -26 56 -26 74 -1 108 l20 27 -30 112 c-41 157 -40 156 -122 148
-59 -6 -69 -5 -75 10 -14 38 9 50 111 57 104 8 196 29 214 51 7 7 25 81 41
163 17 82 44 205 61 274 54 223 51 343 -12 401 -30 27 -31 30 -25 88 6 54 4
62 -13 71 -14 7 -20 21 -20 43 0 27 -6 35 -38 52 -53 29 -112 151 -82 170 16
10 38 -13 42 -42 2 -15 8 -28 14 -30 23 -8 65 42 77 91 9 33 19 51 33 57 37
13 47 -4 45 -74 -2 -62 0 -68 80 -223 45 -87 85 -171 89 -186 12 -40 -11 -136
-101 -426 -155 -495 -175 -598 -189 -942 -10 -242 -24 -339 -58 -406 -23 -45
-42 -63 -133 -127 -91 -63 -104 -85 -103 -173 1 -100 33 -192 104 -304 33 -52
60 -98 60 -102 0 -4 -9 -8 -20 -8 -30 0 -35 -25 -16 -91 39 -140 150 -352 228
-435 26 -28 48 -56 48 -62 0 -18 60 -62 86 -62 18 0 24 6 26 23 5 75 -19 129
-166 377 -47 80 -86 151 -86 157 0 35 60 6 200 -97 135 -99 160 -113 245 -142
61 -20 88 -23 220 -22 110 0 167 5 215 18 36 10 76 18 90 19 24 2 25 0 24 -51
l-2 -53 28 6 c24 5 34 1 56 -24 15 -17 52 -45 82 -62 30 -17 81 -57 114 -90
32 -32 62 -59 66 -59 5 0 21 14 37 30 54 56 58 38 14 -57 -42 -90 -51 -196
-22 -245 25 -42 21 -54 -28 -78 -54 -28 -66 -52 -72 -147 -4 -51 -13 -95 -24
-115 -14 -25 -18 -56 -18 -123 0 -103 15 -138 62 -148 16 -3 51 -24 79 -46 52
-44 163 -95 230 -106 35 -5 46 -3 69 17 23 21 28 34 35 108 17 163 33 336 39
404 6 72 18 88 44 61 13 -13 15 -36 10 -147 -6 -127 -12 -162 -47 -253 -8 -22
-15 -63 -16 -92 0 -44 5 -58 30 -86 17 -19 30 -39 30 -45 0 -6 7 -18 16 -26
17 -18 128 -22 153 -7 10 6 17 42 22 118 9 122 34 206 74 243 29 27 31 46 9
71 -20 22 -10 39 22 39 21 0 24 -4 24 -38 0 -21 5 -43 12 -50 8 -8 0 -37 -35
-119 -40 -94 -47 -121 -53 -207 -5 -79 -4 -100 7 -107 19 -12 196 0 237 17 24
10 32 19 32 38 0 35 18 42 43 18 33 -31 67 -40 175 -48 123 -8 209 1 221 25
12 21 -6 118 -44 232 -33 101 -30 124 24 162 66 46 85 34 70 -45 -4 -26 -9
-109 -11 -185 -4 -164 3 -181 76 -201 71 -19 152 -16 174 6 30 30 34 122 12
258 -11 66 -18 135 -15 154 8 56 -4 65 -89 65 -55 0 -80 4 -91 16 -14 14 -13
17 11 40 19 17 40 25 82 29 l57 5 5 70 c4 53 9 70 20 70 38 0 66 -144 36 -190
-21 -31 -20 -35 4 -35 34 0 42 -33 29 -114 -11 -63 -10 -86 4 -159 9 -47 17
-100 17 -117 0 -63 11 -70 113 -70 59 0 97 4 105 12 19 19 16 278 -3 304 -32
42 -2 95 34 59 13 -13 16 -42 17 -148 0 -73 1 -137 2 -144 5 -29 123 -44 158
-19 17 13 19 29 22 143 3 113 6 130 23 143 19 15 17 18 -46 69 -80 65 -81 82
-11 129 57 38 76 31 76 -28 l0 -37 131 1 131 1 24 -29 c32 -36 29 -71 -6 -71
-18 0 -26 6 -28 23 -3 17 -10 22 -33 22 -16 0 -31 -6 -33 -12 -2 -7 -11 -37
-20 -67 -20 -66 -21 -200 -3 -225 13 -17 17 -18 58 -4 43 15 44 16 44 59 0 42
3 46 34 41 5 -1 11 -11 14 -22 7 -27 43 -26 59 3 15 28 15 178 -1 235 -7 23
-25 54 -41 69 -34 29 -37 44 -49 199 -6 78 -15 124 -30 155 -34 72 -111 173
-142 186 -21 9 -29 20 -34 50 -11 64 -25 104 -72 206 -42 91 -45 104 -40 157
6 70 56 172 122 247 25 28 45 57 45 64 0 7 -12 25 -27 41 -25 26 -26 30 -13
67 14 43 9 75 -14 106 -13 16 -17 17 -25 6 -6 -10 -13 -11 -30 -2 -26 14 -34
46 -35 141 -1 74 -1 75 -26 73 -52 -4 -71 6 -68 35 3 23 -1 27 -24 30 -23 3
-28 -1 -28 -18 0 -25 25 -77 52 -106 16 -19 17 -22 3 -34 -22 -18 -41 -6 -66
42 -33 66 -59 73 -59 17 0 -22 -7 -32 -25 -41 -34 -15 -50 -65 -29 -89 12 -13
15 -28 10 -53 -8 -40 13 -98 47 -134 40 -43 23 -182 -22 -182 -10 0 -24 6 -30
14 -13 15 -45 316 -38 361 4 30 -43 137 -92 210 -25 36 -26 60 -6 109 18 42
12 59 -39 116 -17 19 -53 68 -79 108 -27 40 -57 77 -68 82 -16 9 -18 18 -13
68 7 63 10 56 -88 182 -91 117 -126 289 -128 615 0 163 -14 283 -33 302 -10
10 -22 8 -61 -12 -27 -14 -62 -25 -76 -25 -37 0 -44 -13 -58 -95 -6 -39 -23
-96 -37 -128 -47 -102 -42 -154 22 -223 21 -23 30 -26 68 -21 50 7 61 -1 41
-29 -12 -16 -31 -20 -123 -24 l-108 -5 -7 -80 c-11 -118 -98 -365 -129 -365
-16 0 -7 70 37 289 20 97 38 221 41 277 8 137 -11 170 -70 124 -31 -24 -55
-26 -64 -3 -4 10 1 22 14 32 12 9 44 34 72 56 30 23 75 75 107 123 97 143 168
202 244 202 48 0 182 -56 229 -96 54 -47 69 -78 91 -187 10 -49 25 -96 33
-104 8 -8 44 -18 79 -23 65 -8 138 -35 138 -50 0 -18 31 -38 49 -33 50 13 83
104 62 172 -10 34 -16 41 -37 41 -14 0 -42 -10 -63 -22 -79 -45 -97 8 -23 71
51 45 70 49 106 26 20 -13 31 -14 70 -4 60 15 54 33 -13 37 -66 4 -63 18 12
55 80 39 328 71 477 62 452 -28 628 -77 807 -225 103 -85 127 -130 131 -250 6
-152 -15 -441 -33 -459 -12 -13 -19 -13 -35 -4 -10 7 -21 9 -24 5 -3 -5 -24
-46 -48 -93 -31 -61 -64 -105 -118 -160 l-75 -77 -150 -47 c-82 -27 -175 -50
-206 -53 -51 -4 -64 0 -130 34 -45 24 -105 69 -155 115 -50 48 -93 79 -112 84
-18 3 -60 32 -97 65 -43 40 -78 63 -107 70 -88 23 -108 32 -133 61 -34 42 -52
112 -65 259 -8 84 -17 135 -29 155 -21 36 -74 68 -161 96 -53 17 -70 19 -94
10 l-29 -12 7 -196 c4 -108 11 -204 15 -215 4 -10 18 -25 31 -31 15 -8 30 -28
38 -51 7 -21 25 -50 41 -65 17 -16 31 -42 35 -66 4 -22 16 -54 27 -72 28 -45
146 -153 168 -153 10 0 24 -7 31 -15 18 -21 -4 -45 -42 -45 -26 0 -29 -3 -22
-22 28 -92 75 -144 138 -153 35 -6 58 -18 94 -50 26 -24 64 -50 85 -58 40 -17
47 -40 22 -73 -14 -18 -21 -64 -10 -64 4 0 19 7 36 15 57 30 86 -9 74 -101 -3
-30 -3 -54 2 -54 4 0 42 9 83 20 126 33 153 24 130 -45 -10 -31 -21 -39 -83
-64 -17 -7 -32 -23 -39 -41 -5 -17 -16 -30 -23 -30 -21 0 -28 -19 -15 -35 7
-8 30 -20 51 -26 21 -7 46 -20 55 -30 14 -16 14 -18 -3 -27 -10 -5 -34 -13
-53 -17 -40 -8 -80 -31 -80 -45 0 -5 17 -18 37 -27 60 -29 79 -94 31 -106 -11
-3 -18 -11 -16 -19 5 -15 40 -26 89 -27 67 -2 68 -23 3 -91 l-57 -60 21 -53
c28 -68 28 -81 -5 -106 l-28 -21 25 -20 c49 -41 99 -61 119 -50 33 17 62 67
74 128 15 74 24 85 95 113 101 40 185 86 262 142 82 61 89 63 240 72 117 7
170 20 170 40 0 8 -9 32 -21 54 -27 53 -11 111 31 111 23 0 30 -20 23 -64 -5
-31 -3 -36 14 -36 43 0 112 33 178 86 38 30 82 58 97 61 37 7 43 17 58 97 11
57 10 70 -1 77 -39 24 -98 -2 -114 -51 -15 -43 -38 -49 -61 -15 -17 25 -16 27
14 58 33 34 51 93 52 165 0 27 5 45 14 48 7 3 46 -4 85 -16 39 -12 77 -20 85
-17 8 3 15 33 19 89 3 45 11 98 18 116 15 42 8 116 -16 166 -14 28 -29 43 -57
54 -45 18 -51 47 -14 62 14 5 56 6 94 3 41 -3 77 -1 88 5 16 9 10 13 -39 27
-31 9 -60 22 -64 28 -15 24 -63 295 -78 442 -18 165 -33 241 -71 358 -20 59
-30 77 -44 77 -10 0 -22 -9 -25 -21 -8 -24 -39 -37 -120 -51 -86 -14 -108 -15
-112 -1 -8 22 35 51 84 58 26 3 68 11 93 18 40 12 45 16 53 52 16 76 -24 227
-99 377 -24 48 -44 95 -44 103 0 13 13 15 78 13 72 -3 77 -2 80 18 6 43 -101
68 -170 39 -14 -6 -18 -2 -18 15 0 33 97 330 120 368 12 19 25 65 30 106 11
84 11 85 62 199 l40 89 -17 38 c-18 40 -17 72 6 126 12 30 11 33 -16 57 -28
24 -29 25 -12 50 9 14 42 37 74 52 87 41 119 75 71 75 -13 0 -29 4 -36 9 -21
13 -10 46 16 49 12 2 22 7 22 12 0 18 -54 49 -97 56 -42 6 -48 4 -65 -20 -14
-18 -29 -26 -49 -26 -50 0 -33 41 23 55 15 4 37 23 52 46 14 21 44 48 65 59
22 11 43 24 46 30 4 6 -9 28 -29 50 -35 39 -61 106 -51 132 3 7 15 18 28 23
31 14 34 75 7 147 -21 56 -42 82 -83 103 -20 10 -22 18 -22 102 0 72 -4 95
-17 110 -10 11 -18 27 -18 37 0 27 -27 71 -60 100 -42 35 -60 34 -60 -3 0 -17
-4 -32 -9 -36 -15 -8 -89 25 -96 43 -7 19 19 42 48 42 12 0 17 6 15 18 -3 15
-15 17 -106 14 -104 -3 -136 5 -126 32 3 7 -11 25 -31 40 -19 15 -35 35 -35
45 0 37 -32 110 -66 150 -20 23 -60 53 -92 68 -30 14 -93 55 -139 90 -111 84
-169 119 -239 143 -32 11 -85 38 -119 60 -117 76 -334 162 -610 241 l-150 43
-390 2 c-226 1 -409 -2 -435 -8z m1820 -2577 c0 -10 -11 -28 -25 -41 -14 -13
-25 -33 -25 -45 0 -12 -10 -30 -21 -41 l-22 -19 6 30 c3 17 10 52 15 79 10 54
36 83 59 65 7 -6 13 -19 13 -28z m-210 -250 c15 -29 12 -41 -9 -41 -19 0 -31
18 -31 46 0 21 28 17 40 -5z m-200 -138 c0 -5 -7 -17 -15 -27 -23 -30 -19 -36
23 -36 21 0 47 -6 57 -14 19 -14 19 -15 2 -34 -24 -26 -105 -61 -160 -68 -39
-6 -46 -3 -65 21 -27 33 -28 85 -4 114 23 28 163 65 162 44z m338 -95 c-2 -15
-11 -24 -25 -26 -25 -4 -31 16 -11 36 20 20 40 14 36 -10z m-1510 -263 c15
-33 15 -52 0 -61 -15 -10 -38 24 -38 58 0 35 23 37 38 3z m-1023 -92 c10 -9
67 -29 127 -45 263 -68 337 -157 325 -389 -7 -143 -3 -133 -213 -454 -66 -101
-136 -179 -211 -235 -32 -24 -77 -62 -101 -84 -78 -73 -90 -131 -18 -87 18 12
42 21 53 21 25 0 75 -38 70 -53 -6 -19 -233 -47 -328 -40 -84 6 -89 5 -142
-26 -76 -43 -121 -42 -225 9 -152 73 -194 138 -238 370 -37 200 -50 356 -35
435 38 210 194 330 604 466 187 63 225 78 266 110 29 23 45 24 66 2z m1010
-299 c0 -22 -5 -29 -19 -29 -21 0 -40 48 -31 74 9 24 50 -12 50 -45z m-2785
-145 c15 -27 6 -49 -19 -49 -22 0 -39 39 -26 59 10 18 33 13 45 -10z m2218
-426 c-5 -42 -26 -38 -39 6 -10 33 -9 43 1 56 12 15 15 14 27 -10 8 -14 13
-38 11 -52z m1125 -18 c37 -18 66 -54 70 -87 2 -19 -3 -23 -27 -23 -24 0 -36
9 -63 48 -19 27 -32 55 -29 63 7 18 11 18 49 -1z m-980 -11 c10 -10 -12 -45
-62 -99 -26 -27 -73 -85 -105 -128 -86 -114 -126 -117 -126 -7 0 87 13 103
102 135 26 9 73 36 104 61 56 43 74 51 87 38z m470 -129 c36 -18 172 -222 225
-337 22 -48 51 -88 101 -137 116 -116 184 -267 200 -445 5 -52 17 -108 26
-127 45 -86 -37 -289 -116 -289 -11 0 -30 5 -42 12 -12 7 -56 17 -97 23 l-75
11 3 37 c2 24 -6 52 -22 84 -14 26 -32 79 -40 117 -8 39 -22 109 -31 156 -19
94 -48 160 -70 160 -9 0 -15 -10 -16 -27 -1 -16 -3 -77 -4 -138 -4 -127 -29
-234 -74 -324 -55 -108 -116 -161 -184 -161 -30 0 -43 9 -88 58 -100 109 -134
232 -117 421 11 116 31 165 103 243 68 73 81 99 94 178 7 42 23 84 50 129 45
76 77 172 87 263 6 63 25 108 45 108 6 0 25 -7 42 -15z m647 -29 c0 -16 -7
-26 -22 -30 -39 -10 -48 -7 -48 18 0 26 11 34 48 35 17 1 22 -5 22 -23z m1781
-83 c9 -24 7 -30 -11 -45 -12 -10 -26 -15 -31 -12 -13 8 -11 58 3 72 18 18 27
15 39 -15z m-1625 -39 c24 -50 9 -60 -49 -32 -26 13 -47 28 -47 34 0 18 23 34
52 34 21 0 31 -8 44 -36z m177 -110 c45 -23 77 -54 77 -75 0 -30 -17 -31 -71
-4 -58 30 -103 70 -94 85 9 15 52 12 88 -6z m-1543 -12 c0 -24 -28 -62 -46
-62 -18 0 -10 35 14 63 19 22 32 22 32 -1z m1698 -169 c4 -26 -1 -28 -29 -13
-27 15 -25 42 4 38 14 -2 23 -11 25 -25z m556 -127 c15 -9 55 -22 89 -27 67
-11 150 -43 169 -66 10 -12 9 -18 -7 -29 -28 -21 -72 -17 -97 8 -21 21 -36 23
-173 30 -181 8 -295 38 -295 79 0 24 24 28 166 25 97 -1 127 -5 148 -20z m610
15 c9 -14 -29 -42 -48 -35 -9 3 -16 15 -16 25 0 14 7 19 29 19 17 0 32 -4 35
-9z m-3034 -60 c14 -34 7 -51 -21 -51 -24 0 -33 21 -25 55 9 34 31 32 46 -4z
m-95 -121 c19 -37 19 -109 0 -137 -9 -12 -33 -32 -55 -44 -22 -13 -40 -26 -40
-31 0 -5 14 -33 31 -63 25 -45 29 -58 19 -70 -7 -8 -20 -15 -29 -15 -9 0 -40
-22 -68 -50 -46 -45 -79 -60 -96 -44 -3 4 1 17 10 30 8 13 13 31 9 39 -7 19
-50 19 -66 0 -8 -10 -31 -15 -72 -15 -73 0 -80 -12 -44 -81 32 -63 33 -79 3
-79 -29 0 -47 -18 -47 -45 0 -11 -7 -31 -16 -43 -19 -28 -39 -16 -47 27 -4 16
-14 32 -24 35 -39 12 -151 214 -156 280 -2 27 1 31 22 31 19 0 27 -7 33 -32 5
-18 17 -34 28 -38 33 -10 43 4 36 51 -12 89 65 113 135 43 25 -25 45 -24 53 4
12 45 6 78 -20 104 -29 29 -25 53 10 53 24 0 36 -16 36 -50 0 -21 28 -40 59
-40 21 0 21 1 -5 50 -25 47 -25 52 -10 74 18 29 63 37 169 33 64 -2 70 0 89
26 25 34 34 34 53 -3z m343 -543 c54 -118 61 -147 39 -147 -23 0 -57 45 -77
103 -23 65 -38 173 -23 164 5 -3 33 -57 61 -120z m2472 34 c0 -17 -10 -42 -23
-57 -43 -49 -66 1 -26 57 27 38 49 38 49 0z m-1192 -38 c3 -22 -22 -48 -38
-38 -14 8 -13 38 2 53 16 16 32 10 36 -15z m-183 -72 c-10 -60 -26 -91 -56
-106 -81 -42 -77 22 8 116 41 45 57 42 48 -10z m-278 -137 c9 -24 -10 -49 -38
-49 -27 0 -37 28 -19 50 17 20 49 19 57 -1z m-149 -176 c19 -19 14 -36 -15
-50 -28 -14 -28 -14 -25 -105 2 -62 -1 -93 -9 -98 -21 -14 -29 20 -29 132 0
96 2 113 18 122 23 14 45 14 60 -1z m427 -494 c20 -21 16 -48 -9 -52 -26 -5
-40 12 -32 42 7 30 18 33 41 10z m-525 -253 c0 -31 -16 -51 -42 -51 -24 0 -23
25 3 61 24 34 39 30 39 -10z m-233 2 c42 -23 123 -91 123 -103 0 -18 -50 -10
-80 11 -22 17 -36 20 -63 15 -43 -8 -51 -18 -72 -81 -26 -79 -41 -97 -78 -93
-39 4 -99 80 -79 100 9 9 15 9 24 0 20 -20 52 -14 96 19 35 26 42 36 42 64 0
44 19 85 39 85 9 0 31 -8 48 -17z m-932 -20 c30 -6 41 -14 43 -30 8 -55 -49
-87 -68 -38 -15 41 -49 50 -121 34 -34 -8 -68 -20 -76 -27 -15 -16 -17 -51 -3
-86 13 -34 3 -58 -24 -54 -24 3 -33 34 -35 119 -1 55 10 81 39 93 20 7 195 0
245 -11z m1666 1 c11 -14 10 -19 -10 -35 -36 -29 -101 -21 -101 12 0 32 88 50
111 23z m-1615 -189 c17 -44 -35 -145 -68 -132 -16 5 -14 14 27 135 6 17 34
15 41 -3z"/>
<path d="M9890 14979 c0 -15 5 -20 22 -17 34 5 37 38 4 38 -20 0 -26 -5 -26
-21z"/>
<path d="M7688 13925 c-75 -60 -77 -61 -147 -25 -35 17 -65 29 -68 27 -8 -9
15 -44 48 -71 39 -33 117 -36 167 -6 22 13 50 20 86 20 61 0 104 25 93 54 -5
13 -14 15 -47 10 -28 -5 -47 -2 -64 10 -24 15 -26 14 -68 -19z"/>
<path d="M7544 13755 c-8 -20 -25 -40 -39 -45 -52 -20 -15 -60 54 -60 72 0 99
42 71 114 -7 20 -16 26 -40 26 -26 0 -33 -6 -46 -35z"/>
<path d="M7730 13738 c-35 -5 -66 -11 -69 -14 -13 -13 24 -26 90 -31 58 -4 78
-2 94 11 20 16 20 16 1 31 -22 17 -23 17 -116 3z"/>
<path d="M7417 13705 c-15 -11 -15 -14 -3 -25 17 -13 36 -6 36 15 0 21 -13 25
-33 10z"/>
<path d="M7666 13617 c-31 -26 -36 -35 -25 -44 20 -16 100 -1 139 27 31 22 32
24 14 37 -33 24 -85 16 -128 -20z"/>
<path d="M7367 13622 c-10 -14 23 -87 48 -109 25 -22 65 -31 65 -15 0 13 -90
132 -100 132 -5 0 -11 -3 -13 -8z"/>
<path d="M7290 13456 c0 -20 51 -67 69 -64 33 6 23 37 -18 57 -48 25 -51 25
-51 7z"/>
<path d="M7450 13433 c-29 -37 -21 -49 31 -45 52 3 89 25 89 52 0 17 -7 20
-49 20 -42 0 -53 -4 -71 -27z"/>
<path d="M7892 12741 c-64 -22 -65 -23 -64 -62 2 -63 47 -79 82 -29 12 17 44
42 71 55 51 26 60 39 33 49 -26 10 -66 6 -122 -13z"/>
<path d="M2757 16798 c-9 -7 -56 -82 -106 -167 -80 -138 -88 -156 -79 -182 11
-33 570 -496 651 -540 37 -20 93 -35 196 -53 82 -15 161 -34 185 -47 22 -12
462 -254 976 -539 514 -285 942 -520 950 -522 10 -2 19 16 32 67 19 75 42 332
33 368 -5 17 -200 131 -858 501 -469 263 -868 489 -889 502 -22 14 -71 72
-127 152 -56 79 -106 139 -129 154 -48 31 -765 318 -795 318 -13 0 -31 -6 -40
-12z"/>
<path d="M15650 16215 l-466 -22 -74 -38 c-106 -53 -170 -106 -239 -194 -51
-67 -140 -213 -141 -232 0 -7 -20 -6 315 -19 160 -6 293 -12 296 -13 3 -1 -72
-108 -168 -237 -95 -128 -173 -237 -173 -241 0 -3 81 -27 179 -51 165 -42 184
-44 237 -35 32 5 77 22 100 36 24 15 156 156 310 331 415 471 434 493 434 510
0 34 -33 127 -63 178 -26 42 -37 52 -57 51 -14 -1 -234 -12 -490 -24z"/>
<path d="M16335 16210 c8 -16 20 -42 25 -56 10 -26 11 -26 31 -8 12 11 35 36
51 57 l30 37 -76 0 -77 0 16 -30z"/>
<path d="M11473 16183 c-20 -8 -15 -31 7 -38 28 -9 54 13 39 31 -12 14 -24 16
-46 7z"/>
<path d="M11644 16096 c-9 -23 0 -51 16 -51 10 0 15 10 15 29 0 32 -21 47 -31
22z"/>
<path d="M13415 15354 c-731 -354 -1338 -653 -1347 -664 -24 -30 -14 -116 18
-150 l24 -24 47 21 c83 36 2357 1133 2379 1148 23 15 230 316 217 314 -4 0
-606 -290 -1338 -645z"/>
<path d="M11721 15958 c-10 -29 -2 -68 15 -68 17 0 28 41 19 69 -8 27 -24 27
-34 -1z"/>
<path d="M11472 15832 c-19 -6 -14 -22 7 -22 50 0 71 -39 32 -60 -23 -12 -37
-96 -26 -160 l7 -42 20 33 c30 50 78 174 78 203 0 13 -4 27 -9 31 -15 9 -95
22 -109 17z"/>
<path d="M11680 15705 c-7 -20 -4 -42 13 -92 24 -72 46 -95 75 -77 50 31 46
108 -9 164 -38 37 -66 39 -79 5z"/>
<path d="M11847 15550 c-30 -27 -79 -80 -109 -117 -89 -109 -99 -144 -32 -108
50 27 63 10 35 -47 -28 -59 -27 -70 10 -97 29 -21 31 -27 26 -68 -3 -32 -1
-46 9 -50 21 -8 44 16 44 46 0 39 26 71 59 71 51 0 75 49 89 185 11 96 5 155
-14 155 -7 0 -16 12 -20 28 -10 46 -13 52 -28 52 -8 0 -39 -22 -69 -50z m87
-143 c15 -41 -2 -62 -50 -62 -33 0 -39 3 -42 23 -2 13 4 34 13 48 23 35 66 30
79 -9z"/>
<path d="M13435 15005 c-671 -326 -1255 -613 -1298 -636 l-79 -41 36 -37 c50
-51 56 -76 56 -219 0 -70 4 -132 8 -138 5 -8 458 211 1350 650 l1342 661 119
170 c65 94 118 171 117 171 0 1 -98 4 -216 7 l-215 6 -1220 -594z"/>
<path d="M11495 15456 c-16 -12 -18 -17 -7 -28 15 -15 47 0 47 22 0 20 -18 22
-40 6z"/>
<path d="M11993 15155 c-12 -25 -26 -38 -49 -44 -17 -5 -41 -18 -53 -30 -11
-11 -29 -21 -40 -21 -25 0 -38 -17 -46 -61 -5 -27 -2 -40 11 -53 17 -18 30
-18 97 -1 33 9 62 -20 77 -77 14 -51 27 -69 45 -62 40 16 21 89 -36 137 l-40
33 35 74 c35 72 47 140 26 140 -6 0 -18 -16 -27 -35z"/>
<path d="M11483 15124 c-3 -8 0 -27 6 -41 11 -24 13 -25 28 -10 14 13 14 21 5
42 -13 28 -30 33 -39 9z"/>
<path d="M14717 15035 c-520 -249 -2553 -1239 -2562 -1247 -16 -14 -32 -197
-22 -245 l8 -41 212 102 c117 57 415 202 662 324 445 217 616 301 1688 827
301 148 544 272 540 276 -5 4 -82 27 -171 51 l-164 45 -191 -92z"/>
<path d="M11691 14839 c-76 -91 -68 -139 24 -139 44 0 95 -25 95 -46 0 -9 -7
-28 -16 -44 -21 -35 -13 -72 22 -94 30 -21 111 -46 118 -38 4 3 6 64 6 136 0
148 -9 177 -55 186 -43 9 -83 38 -101 71 -8 16 -21 29 -28 29 -8 0 -37 -27
-65 -61z"/>
<path d="M11720 14482 c0 -16 7 -53 16 -83 41 -137 58 -153 106 -101 50 51 54
112 9 112 -20 0 -60 34 -86 73 -23 36 -45 35 -45 -1z"/>
<path d="M11945 14215 c-17 -12 -18 -16 -6 -24 18 -12 54 5 48 22 -5 17 -21
18 -42 2z"/>
<path d="M12043 14173 c-18 -9 -35 -24 -38 -33 -3 -9 -7 -106 -9 -217 -5 -214
-13 -265 -67 -433 -20 -60 -32 -119 -33 -160 -1 -50 -7 -72 -24 -95 -13 -18
-29 -67 -41 -125 -20 -103 -38 -150 -73 -193 -16 -20 -19 -30 -11 -38 15 -15
141 28 147 50 2 9 10 40 16 68 7 29 25 88 42 130 80 207 111 329 118 463 4 82
11 125 24 149 15 29 17 46 10 100 -4 36 -9 116 -10 176 -3 173 -4 175 -11 174
-5 0 -23 -8 -40 -16z"/>
<path d="M10534 14166 c-9 -23 0 -51 16 -51 10 0 15 10 15 29 0 32 -21 47 -31
22z"/>
<path d="M11823 14040 c-49 -20 -12 -43 45 -28 19 5 32 14 29 21 -5 15 -45 19
-74 7z"/>
<path d="M10446 14014 c-11 -29 -6 -44 17 -55 13 -6 27 -20 32 -32 9 -19 19
-22 83 -25 65 -3 76 0 102 22 17 13 39 27 50 31 11 3 20 15 20 26 0 16 -7 19
-44 19 -24 0 -50 2 -58 5 -7 3 -20 -8 -30 -25 -14 -24 -24 -30 -52 -30 -31 0
-38 5 -56 40 -21 42 -53 54 -64 24z"/>
<path d="M6140 13988 c0 -2 7 -21 15 -43 8 -22 14 -57 15 -77 0 -31 4 -38 19
-38 25 0 33 25 22 73 -11 47 -37 87 -56 87 -8 0 -15 -1 -15 -2z"/>
<path d="M10355 13950 c-18 -20 -17 -20 8 -20 20 0 27 5 27 20 0 11 -4 20 -8
20 -5 0 -17 -9 -27 -20z"/>
<path d="M10511 13871 c-46 -6 -68 -27 -58 -55 5 -14 23 -16 124 -13 96 2 118
5 121 18 6 33 -102 63 -187 50z"/>
<path d="M10779 13851 c-20 -16 -22 -23 -14 -47 11 -31 48 -43 75 -24 13 9 12
12 -5 25 -16 13 -17 19 -8 34 22 34 -11 42 -48 12z"/>
<path d="M10884 13855 c-8 -19 12 -36 33 -28 19 7 12 37 -10 41 -9 2 -20 -4
-23 -13z"/>
<path d="M10242 13754 c-23 -12 -30 -20 -23 -27 7 -7 19 -6 37 3 23 13 27 12
42 -6 10 -12 41 -31 71 -43 46 -19 65 -22 115 -16 82 9 96 18 96 61 l0 35 -62
-2 c-35 -1 -103 1 -153 5 -75 6 -96 4 -123 -10z"/>
<path d="M10658 13729 c-23 -13 -23 -42 0 -62 28 -25 95 -21 150 8 26 14 60
25 77 25 16 0 37 5 45 10 13 9 13 11 0 20 -20 13 -250 12 -272 -1z"/>
<path d="M10890 13650 c-8 -5 -42 -10 -76 -10 -51 0 -65 -4 -88 -25 -34 -31
-69 -32 -196 -4 -119 26 -217 34 -253 20 -30 -12 -28 -31 3 -31 10 0 52 -13
93 -30 86 -34 137 -37 242 -15 39 8 102 15 140 15 75 0 150 26 161 55 9 22 -7
37 -26 25z"/>
<path d="M9270 13545 c0 -18 5 -25 20 -25 21 0 24 8 14 34 -10 25 -34 19 -34
-9z"/>
<path d="M10304 13496 c-9 -23 22 -55 76 -79 75 -34 352 -35 351 -2 0 6 -27
13 -59 17 -32 3 -74 16 -94 28 -25 14 -66 24 -128 31 -50 5 -102 12 -116 15
-17 4 -26 1 -30 -10z"/>
<path d="M10350 13332 c0 -25 20 -42 50 -42 25 0 130 44 130 55 0 3 -40 5 -90
5 -80 0 -90 -2 -90 -18z"/>
<path d="M11620 13145 c-13 -16 -7 -45 9 -45 14 0 33 38 26 50 -9 14 -21 12
-35 -5z"/>
<path d="M11414 12714 c3 -9 6 -17 6 -19 0 -11 96 -75 111 -75 28 0 23 32 -8
62 -45 43 -122 65 -109 32z"/>
<path d="M11642 12553 c-12 -9 -37 -19 -55 -22 -49 -10 -63 -48 -43 -111 29
-90 14 -213 -53 -420 -17 -52 -27 -98 -22 -103 11 -11 61 9 89 36 37 34 69 97
81 157 27 135 50 463 34 473 -5 3 -18 -2 -31 -10z"/>
<path d="M11380 12343 c-20 -8 -30 -24 -30 -50 0 -26 -35 -53 -67 -53 -29 0
-29 -17 0 -48 18 -19 22 -35 21 -85 0 -78 -30 -147 -85 -198 l-41 -38 31 -16
c34 -17 37 -28 16 -65 -19 -33 -19 -65 1 -80 8 -8 14 -25 12 -39 -2 -21 -9
-27 -35 -29 -47 -5 -56 -29 -48 -122 6 -67 4 -84 -15 -129 -23 -51 -23 -58 -4
-158 5 -23 -2 -53 -25 -106 -20 -48 -34 -106 -41 -163 -11 -95 -20 -131 -69
-262 -27 -73 -31 -99 -37 -231 -4 -82 -4 -156 -1 -165 6 -15 9 -15 36 -2 27
14 29 19 33 97 3 45 2 99 -2 120 -5 29 -3 42 7 51 13 10 22 5 53 -32 l38 -45
8 30 c4 17 15 46 26 65 10 19 18 40 18 47 0 7 18 60 40 118 22 58 40 112 40
121 0 8 13 50 29 92 16 42 44 119 62 171 20 55 48 111 67 134 l32 39 1 141 c2
210 3 207 -37 246 -46 45 -45 85 5 243 21 68 53 183 71 257 27 110 30 135 19
142 -15 10 -105 11 -129 2z"/>
<path d="M10809 12110 c-104 -31 -269 -150 -351 -251 -109 -136 -131 -222
-147 -574 -6 -126 -13 -283 -16 -347 -8 -164 1 -162 154 32 98 123 148 212
204 355 19 50 67 161 106 248 83 184 111 284 118 419 7 123 -1 139 -68 118z"/>
<path d="M10990 12109 c-44 -18 -52 -56 -23 -107 17 -29 17 -31 0 -50 -11 -12
-20 -42 -23 -74 -3 -29 -14 -98 -25 -152 -10 -54 -19 -129 -19 -165 0 -75 -28
-143 -113 -281 -49 -77 -58 -110 -32 -110 21 0 30 -27 15 -45 -7 -8 -27 -15
-44 -15 -62 0 -72 -37 -26 -90 16 -19 29 -42 30 -51 0 -8 -18 -40 -41 -70 -36
-48 -79 -120 -79 -133 0 -2 10 -6 23 -8 35 -5 29 -42 -8 -46 -42 -5 -49 -13
-85 -103 -39 -95 -61 -125 -106 -144 -30 -12 -33 -17 -25 -33 5 -10 17 -24 25
-32 27 -21 18 -41 -47 -109 -57 -60 -64 -72 -75 -131 -8 -36 -18 -74 -25 -85
-6 -11 -17 -33 -24 -50 -38 -84 -33 -80 -105 -80 -36 0 -69 -3 -73 -7 -4 -4
-4 -23 -1 -43 5 -25 12 -35 26 -35 31 0 33 -18 5 -46 -27 -27 -27 -33 -1 -69
18 -24 6 -51 -19 -41 -9 3 -22 19 -28 35 -6 17 -21 32 -34 36 -36 9 -30 43 9
53 42 11 52 37 10 28 -25 -6 -33 -3 -51 20 -52 66 -35 101 64 129 51 15 91 47
114 92 9 19 8 24 -8 33 -11 5 -39 10 -63 10 -69 0 -93 43 -42 76 24 16 28 16
60 1 51 -25 85 -21 132 14 48 35 53 49 18 49 -17 0 -29 -9 -38 -27 -16 -35
-48 -40 -73 -13 -10 11 -26 20 -36 20 -29 0 -51 28 -39 51 15 28 55 34 86 14
25 -16 27 -16 50 6 17 16 24 33 24 61 0 47 25 75 98 112 52 26 72 50 72 83 0
11 11 34 25 53 49 66 18 126 -51 103 -23 -8 -32 -19 -43 -59 -16 -58 -46 -104
-68 -104 -11 0 -13 6 -8 23 12 37 16 141 7 155 -7 11 -30 7 -118 -18 -60 -18
-115 -37 -123 -43 -10 -9 -12 -29 -8 -84 6 -79 -3 -97 -45 -91 -22 3 -23 7
-20 65 3 51 1 64 -17 82 -23 23 -57 26 -112 11 l-36 -10 0 -133 c0 -133 -11
-193 -36 -184 -8 2 -13 42 -15 141 -2 133 -3 137 -27 148 -36 16 -112 2 -120
-23 -9 -26 3 -115 21 -158 19 -45 12 -61 -25 -61 -37 0 -42 14 -34 93 7 74 -4
90 -68 107 -77 21 -79 17 -79 -135 l0 -133 28 -21 27 -21 -48 -46 c-54 -52
-84 -56 -79 -9 1 17 6 84 11 150 5 66 12 131 16 144 10 31 -16 51 -64 50 -73
-1 -76 -5 -76 -110 0 -84 -3 -100 -29 -149 -47 -92 -96 -130 -96 -75 0 17 9
29 29 39 l29 15 -1 131 c0 97 -3 133 -13 138 -7 4 -39 5 -71 2 l-58 -5 -1 -95
c-2 -103 -20 -175 -44 -175 -16 0 -17 19 -10 181 1 40 -1 77 -4 83 -10 16 -91
14 -105 -3 -7 -9 -10 -57 -9 -138 2 -104 -1 -129 -15 -151 -37 -57 -73 6 -63
110 19 186 19 181 -1 191 -10 6 -39 8 -66 5 -45 -5 -47 -7 -58 -45 -11 -44 -5
-101 18 -156 28 -67 4 -92 -154 -166 -82 -37 -108 -40 -141 -13 -19 15 3 35
52 48 22 6 53 22 68 36 38 36 75 126 88 217 16 110 11 114 -107 92 -48 -8
-110 -19 -138 -23 l-50 -8 3 -118 c2 -94 7 -126 22 -155 22 -40 15 -56 -21
-50 -29 4 -42 47 -63 207 -12 93 -17 108 -40 128 -16 14 -40 23 -60 23 -18 0
-66 11 -106 25 -100 34 -120 33 -120 -4 0 -16 -8 -37 -17 -46 -16 -16 -18 -16
-35 5 -10 12 -18 36 -18 52 0 48 -37 32 -54 -24 -8 -26 -46 -23 -46 3 0 46
-33 91 -99 134 -36 23 -86 58 -109 78 -57 48 -82 49 -82 4 0 -42 53 -212 80
-256 24 -37 21 -46 -9 -36 -23 7 -65 64 -104 140 -13 28 -34 59 -46 69 -20 19
-23 19 -57 3 -46 -22 -50 -38 -25 -97 11 -27 21 -69 21 -95 0 -57 70 -241 100
-262 41 -29 17 -72 -33 -59 -50 12 -131 232 -167 454 -11 70 -45 278 -75 462
-64 399 -105 687 -105 747 0 65 -19 78 -126 86 -99 7 -273 47 -342 77 -66 30
-75 27 -68 -17 4 -21 23 -91 42 -155 20 -65 34 -125 30 -133 -4 -11 -124 -78
-143 -80 -1 0 4 -25 11 -56 19 -79 53 -172 97 -264 21 -44 43 -98 48 -120 20
-86 71 -188 110 -221 27 -24 42 -47 51 -81 7 -26 20 -59 29 -73 10 -14 28 -52
41 -85 32 -84 60 -127 76 -121 8 3 18 -3 24 -13 12 -23 38 -165 51 -276 12
-108 55 -338 74 -403 17 -55 24 -63 180 -176 37 -27 110 -99 163 -160 123
-141 221 -238 303 -299 35 -26 93 -73 129 -104 36 -30 90 -66 120 -80 30 -14
73 -40 95 -58 22 -17 63 -46 91 -63 27 -17 65 -49 82 -71 44 -55 105 -88 204
-112 46 -11 119 -32 163 -46 72 -24 95 -27 230 -27 171 0 221 11 243 56 16 34
46 42 119 35 38 -4 65 -14 91 -34 30 -22 49 -28 102 -31 51 -3 69 -1 79 12 10
12 31 16 82 16 52 0 69 3 69 14 0 19 24 27 60 19 28 -5 37 1 102 66 75 76 102
94 156 106 60 13 94 104 66 175 -18 44 -8 70 25 70 44 0 211 148 211 186 0 22
68 47 107 41 30 -5 35 -3 44 20 14 38 7 58 -19 56 -36 -4 -39 25 -6 53 16 13
35 23 42 24 14 0 16 -36 2 -45 -18 -11 -10 -25 14 -25 37 0 75 17 113 50 19
17 44 30 56 30 32 0 56 20 65 54 8 30 14 35 65 55 23 9 27 16 27 50 0 38 15
64 42 73 9 3 9 11 -1 35 -12 30 -43 53 -48 36 -13 -35 -32 -59 -51 -61 -56 -8
13 100 88 138 31 16 42 30 59 74 44 118 71 270 71 401 0 41 9 120 19 177 11
57 24 143 30 191 6 52 21 111 35 145 38 85 44 125 61 377 24 368 45 576 62
637 8 32 13 64 10 73 -7 17 -49 19 -87 4z m-4068 -429 c-1 -30 3 -72 9 -93 9
-26 9 -41 2 -48 -18 -18 -45 19 -41 57 1 20 -4 40 -15 52 -9 10 -17 25 -17 33
0 24 31 60 48 57 14 -3 16 -14 14 -58z m44 -214 c15 -12 17 -18 8 -33 -25 -41
-73 -18 -59 28 8 23 24 24 51 5z m44 -551 c0 -7 -7 -18 -16 -26 -13 -10 -17
-10 -25 2 -11 17 -12 63 -2 73 9 9 43 -30 43 -49z m778 -431 c-2 -21 -9 -30
-26 -32 -33 -5 -39 24 -11 54 27 28 42 19 37 -22z m252 6 c13 -25 25 -160 16
-194 -8 -33 -34 -34 -46 0 -11 28 -14 173 -4 198 8 22 21 20 34 -4z m1691
-251 c8 -17 8 -31 0 -61 -9 -30 -9 -46 1 -74 11 -31 10 -36 -10 -56 -21 -21
-23 -21 -39 -5 -17 16 -16 19 2 53 18 33 18 37 2 64 -20 33 -22 71 -5 88 18
18 36 15 49 -9z m-174 -75 c9 -23 -14 -64 -36 -64 -24 0 -33 33 -14 59 17 25
41 27 50 5z m351 -92 c3 -16 -2 -22 -17 -22 -24 0 -33 13 -25 35 9 23 38 14
42 -13z m8 -307 c9 -23 -15 -45 -47 -45 -38 0 -47 19 -19 42 27 22 59 23 66 3z
m-476 -34 c23 -44 -28 -70 -54 -28 -9 15 -7 21 8 33 26 19 33 18 46 -5z m614
-124 c13 -21 -18 -57 -50 -57 -33 0 -35 21 -5 52 28 30 39 31 55 5z m-127
-291 c-2 -6 -12 -11 -23 -11 -20 0 -30 26 -19 53 6 15 9 14 26 -7 11 -13 18
-29 16 -35z"/>
<path d="M11178 12029 c-24 -13 -23 -29 1 -29 30 0 51 11 51 26 0 16 -27 18
-52 3z"/>
<path d="M7131 11916 c-35 -42 -18 -167 50 -370 44 -132 115 -288 147 -326 27
-32 33 -24 67 85 41 134 59 263 45 329 -29 139 -256 346 -309 282z"/>
<path d="M6190 11862 c-19 -10 -262 -129 -540 -264 -507 -247 -1984 -970
-2395 -1172 -121 -59 -436 -213 -700 -341 l-480 -233 1 -92 c0 -50 5 -95 11
-101 6 -6 251 108 744 347 404 196 811 394 904 439 1038 503 2601 1267 2608
1274 13 13 -21 78 -63 123 -42 43 -43 43 -90 20z"/>
<path d="M11510 11839 c-31 -17 -34 -22 -31 -56 1 -23 12 -48 27 -63 l24 -26
-15 -94 c-27 -163 -85 -113 516 -447 288 -161 529 -292 536 -292 34 -2 192
229 193 280 0 32 -12 42 -120 106 -153 91 -1081 613 -1088 612 -4 -1 -23 -10
-42 -20z"/>
<path d="M13058 11651 c-47 -5 -79 -15 -107 -34 -45 -30 -286 -291 -286 -310
0 -6 28 -28 62 -47 114 -64 111 -130 -14 -328 -45 -72 -78 -107 -113 -122 -24
-10 -37 -7 -110 30 -45 23 -83 40 -85 38 -2 -2 -24 -81 -49 -176 -45 -165 -46
-175 -36 -239 6 -37 21 -92 33 -122 21 -53 28 -60 141 -136 133 -90 116 -86
321 -71 142 11 221 -2 395 -66 158 -57 208 -84 338 -180 100 -74 370 -338 470
-462 85 -103 322 -259 667 -436 121 -62 225 -116 230 -120 32 -23 617 -315
654 -326 65 -19 186 -19 253 0 70 21 231 127 311 205 133 128 279 362 321 511
22 81 29 205 16 285 -13 78 -53 203 -80 248 -29 47 -94 110 -137 133 -126 67
-355 192 -548 299 -212 117 -516 285 -771 425 -157 86 -230 111 -389 130 -148
18 -386 69 -445 96 -74 34 -284 150 -340 188 -91 62 -243 242 -300 356 -27 53
-77 101 -182 175 -85 60 -113 67 -220 56z m176 -326 c114 -67 182 -121 215
-172 58 -88 120 -298 105 -360 -7 -31 -47 -89 -78 -114 -27 -22 -211 -35 -278
-20 -31 7 -103 46 -208 114 -181 116 -183 118 -162 231 20 104 77 199 200 331
l60 65 34 -14 c19 -8 69 -35 112 -61z m1351 -806 c119 -28 197 -68 1375 -724
140 -78 282 -156 316 -174 123 -65 173 -182 146 -344 -15 -85 -39 -138 -88
-195 -43 -51 -58 -60 -125 -72 -64 -12 -76 -7 -354 150 -186 106 -463 260
-870 487 -373 208 -576 326 -607 351 -18 15 -70 63 -115 108 -157 156 -186
314 -71 395 74 53 210 59 393 18z"/>
<path d="M13040 11262 c-78 -80 -135 -175 -151 -249 -18 -88 -13 -94 133 -189
148 -96 179 -106 326 -103 83 2 94 5 115 27 45 48 21 206 -54 354 -28 55 -38
64 -158 143 -71 47 -132 85 -137 85 -4 0 -38 -30 -74 -68z"/>
<path d="M14265 10481 c-55 -25 -76 -52 -82 -104 -7 -58 18 -112 91 -200 58
-68 185 -171 260 -209 23 -12 138 -76 256 -143 118 -67 267 -150 330 -185 63
-34 201 -111 305 -170 580 -326 733 -410 751 -410 35 1 99 36 131 73 44 50 63
121 63 234 0 94 -9 126 -39 151 -9 6 -90 53 -181 103 -91 51 -280 156 -420
234 -992 553 -1063 590 -1215 629 -80 21 -199 20 -250 -3z"/>
<path d="M4245 10549 c-1166 -566 -2124 -1030 -2129 -1032 -26 -9 57 -229 125
-331 28 -42 52 -76 54 -76 1 0 123 59 271 131 148 72 433 211 634 309 201 98
608 297 905 442 297 145 664 325 815 399 1625 794 1585 774 1588 801 2 15 -8
48 -21 75 -14 26 -35 82 -47 123 -12 41 -26 80 -30 85 -5 6 -14 32 -20 58 -7
26 -15 47 -19 46 -3 0 -960 -464 -2126 -1030z"/>
<path d="M9892 11070 l-43 -19 7 -128 c4 -71 11 -136 16 -145 14 -28 66 -24
72 5 9 43 17 256 10 281 -7 31 -7 31 -62 6z"/>
<path d="M4495 10035 c-1144 -563 -2081 -1030 -2083 -1037 -4 -18 62 -80 124
-116 l52 -30 2046 1006 2046 1007 0 33 c0 23 -12 49 -40 87 -22 30 -40 59 -40
65 0 5 -6 10 -12 10 -7 0 -949 -461 -2093 -1025z"/>
<path d="M7292 10878 c2 -15 11 -24 26 -26 24 -4 30 16 10 36 -20 20 -40 14
-36 -10z"/>
<path d="M10900 10131 c-19 -36 -13 -61 15 -61 28 0 61 41 51 65 -8 22 -53 19
-66 -4z"/>
<path d="M10833 9961 c-49 -47 -55 -71 -19 -71 41 0 74 49 64 95 -2 14 -12 9
-45 -24z"/>
<path d="M7070 8260 c-37 -5 -5 -7 100 -8 94 0 147 3 135 8 -23 10 -154 10
-235 0z"/>
<path d="M7050 8213 c-41 -7 -85 -12 -97 -10 -12 2 -20 1 -18 -3 6 -10 -101
-24 -115 -15 -5 3 -10 2 -10 -3 0 -14 -220 -36 -294 -30 -50 4 -68 11 -89 32
-28 28 -63 33 -91 13 -22 -16 -35 -79 -36 -175 0 -69 -2 -76 -30 -102 -16 -15
-46 -31 -67 -35 -21 -4 -50 -13 -65 -21 -45 -23 -39 -80 23 -233 28 -69 53
-150 56 -179 9 -86 -16 -254 -72 -482 -30 -118 -59 -244 -66 -280 -16 -92 -15
-244 4 -316 17 -67 15 -99 -27 -353 -13 -80 -27 -177 -31 -216 -9 -100 -20
-127 -70 -173 -34 -31 -45 -48 -45 -71 0 -34 48 -130 117 -234 26 -39 46 -72
44 -72 -2 0 15 -20 38 -45 23 -25 49 -57 58 -72 38 -62 136 -49 401 54 258
101 438 202 513 286 92 105 129 201 136 357 6 124 -4 178 -42 219 -34 36 -104
35 -202 -3 -40 -16 -73 -26 -73 -22 0 3 -4 1 -8 -6 -12 -20 -388 -173 -424
-173 -4 0 -8 11 -8 23 0 40 48 244 66 279 22 44 65 89 77 81 6 -3 7 -1 4 4 -4
6 21 25 56 43 159 83 422 252 438 281 8 16 10 72 6 198 -5 187 -19 278 -45
299 -28 21 -95 14 -157 -17 -33 -17 -63 -27 -68 -24 -6 3 -7 2 -4 -4 10 -16
-138 -83 -183 -83 -35 0 -42 4 -51 28 -16 39 -3 335 16 372 32 63 132 94 335
104 259 14 354 38 389 98 11 18 23 38 28 43 4 6 10 19 11 30 2 11 11 28 19 38
9 9 13 17 9 17 -3 0 1 15 11 33 9 17 18 37 19 42 1 6 13 48 27 95 37 123 50
195 51 280 1 124 8 120 -207 119 -107 -1 -213 -7 -257 -16z m-820 -1741 c-17
-222 -45 -403 -95 -619 -12 -52 -20 -70 -30 -67 -15 6 -15 3 21 224 13 80 28
183 33 230 13 108 74 407 79 391 2 -7 -1 -79 -8 -159z"/>
<path d="M7962 8152 c-43 -99 -87 -277 -112 -452 -10 -70 -60 -517 -61 -550
-3 -51 -27 -201 -74 -450 -86 -461 -99 -559 -100 -771 l0 -186 74 -144 c95
-185 206 -385 238 -428 25 -32 28 -33 78 -28 29 3 87 21 128 40 42 19 78 32
81 29 3 -3 6 0 6 5 0 6 35 31 78 54 161 90 258 123 329 112 70 -12 72 -11
-242 -120 -143 -50 -337 -132 -359 -153 -21 -21 -15 -56 13 -65 10 -3 49 9 87
26 146 65 594 226 594 213 0 -2 12 2 28 9 15 8 72 18 127 21 60 4 109 13 123
22 26 17 29 59 7 119 -11 30 -14 97 -15 275 0 248 -9 344 -35 369 -13 13 -44
16 -170 16 -84 0 -151 -2 -149 -5 3 -2 -62 -16 -143 -31 -81 -14 -187 -36
-235 -48 -49 -12 -103 -21 -120 -19 -31 3 -33 6 -31 37 1 18 15 63 31 100 54
118 105 492 118 871 11 336 -25 708 -86 890 -55 166 -128 290 -171 290 -10 0
-24 -18 -37 -48z"/>
<path d="M9880 8186 c-30 -7 -70 -20 -87 -29 -18 -10 -35 -17 -38 -17 -3 0
-59 -58 -126 -129 -125 -135 -172 -168 -218 -156 -72 18 -75 17 -105 -14 l-29
-31 10 -98 c16 -142 4 -193 -60 -249 -84 -74 -87 -112 -17 -313 83 -237 81
-225 91 -630 6 -201 11 -507 13 -680 5 -427 4 -413 70 -545 68 -134 142 -230
185 -238 150 -30 521 172 751 409 111 114 130 134 130 139 0 2 20 32 43 67
129 187 199 378 213 587 8 112 -6 212 -43 316 -48 131 -99 194 -190 236 -88
39 -86 61 21 194 66 82 90 149 107 292 20 170 -14 369 -91 529 -136 283 -372
417 -630 360z m354 -642 c54 -54 -22 -265 -186 -515 -72 -109 -149 -182 -240
-225 -75 -35 -79 -19 -78 339 1 195 5 269 15 293 17 40 72 78 145 98 73 20 97
23 222 25 85 1 110 -2 122 -15z m72 -1087 c32 -28 43 -101 25 -174 -24 -95
-97 -229 -160 -291 -130 -127 -291 -221 -378 -222 -85 0 -103 54 -103 307 l0
166 44 43 c49 46 169 109 188 98 6 -4 8 -3 5 3 -5 8 88 48 134 57 8 2 22 7 33
11 33 14 80 23 133 24 41 1 58 -4 79 -22z m-855 -429 c15 -69 19 -324 6 -398
-4 -25 -17 -61 -29 -80 l-22 -35 -7 50 c-9 66 -11 357 -2 475 6 89 7 92 23 72
9 -11 23 -49 31 -84z"/>
<path d="M12220 8185 c-125 -20 -463 -102 -552 -135 -114 -42 -225 -65 -242
-51 -8 6 -17 36 -21 67 -7 58 -24 76 -54 57 -25 -15 -56 -77 -87 -172 -35
-107 -36 -181 -9 -418 23 -205 17 -304 -40 -703 -20 -135 -44 -366 -55 -515
-22 -295 -40 -428 -68 -502 -17 -45 -21 -50 -82 -74 -97 -38 -95 -57 31 -256
32 -51 55 -93 51 -93 -4 0 -2 -4 3 -8 6 -4 33 -45 60 -91 28 -46 65 -97 84
-113 60 -53 82 -46 529 189 107 56 200 107 208 114 8 6 14 8 14 3 0 -4 6 -1
13 7 6 9 34 33 61 55 61 48 119 126 159 213 17 36 32 71 33 77 1 7 9 44 18 82
19 83 21 180 5 216 -16 34 -59 50 -118 43 -27 -3 -134 -40 -238 -83 -288 -118
-356 -143 -382 -144 l-24 0 5 103 c3 69 10 114 22 139 32 67 128 114 396 192
69 21 149 48 179 62 56 25 113 70 120 95 13 45 10 82 -15 154 -22 68 -28 104
-33 234 -6 145 -8 154 -30 172 -28 23 -92 25 -150 4 -23 -8 -94 -39 -159 -69
-138 -64 -175 -73 -203 -45 -17 17 -19 33 -18 137 1 142 11 234 27 240 7 2 10
8 7 12 -9 15 66 58 129 74 33 9 121 21 195 26 75 6 176 15 225 20 49 5 93 7
97 4 5 -3 9 -1 9 4 0 6 15 13 34 16 73 14 118 81 181 269 74 221 73 362 -1
393 -42 18 -198 17 -314 -1z"/>
<path d="M4861 8150 c-180 -37 -340 -115 -460 -226 -32 -29 -61 -50 -65 -46
-4 4 -6 2 -4 -3 2 -6 -13 -31 -33 -55 -43 -54 -98 -148 -123 -210 -10 -25 -23
-56 -29 -70 -13 -31 -11 -25 -21 -85 -4 -27 -10 -54 -13 -59 -4 -5 -7 -27 -9
-50 -2 -23 -6 -70 -9 -106 -11 -132 23 -316 80 -431 9 -19 42 -73 73 -121 70
-106 112 -136 294 -208 332 -132 433 -220 413 -357 -11 -78 -48 -131 -112
-160 -33 -15 -66 -23 -83 -21 -16 2 -27 1 -25 -2 2 -4 -12 -7 -32 -8 -21 -1
-41 4 -45 11 -6 9 -8 9 -8 0 0 -17 -42 -11 -308 39 -245 46 -268 45 -322 -10
-90 -90 -135 -356 -88 -515 8 -26 30 -59 58 -87 119 -119 364 -187 680 -189
237 -2 395 38 487 123 21 19 66 56 100 81 95 71 158 147 216 265 28 58 54 107
57 110 3 3 6 11 8 19 1 7 14 51 27 98 65 224 52 404 -41 583 -74 142 -167 219
-405 334 -178 86 -261 138 -319 198 -88 90 -118 203 -86 328 22 87 59 138 125
172 89 47 191 38 455 -37 159 -46 207 -47 248 -9 79 75 158 302 158 456 0 68
-3 80 -26 107 -32 38 -112 84 -189 107 -33 10 -62 22 -63 26 -2 5 -8 6 -12 3
-5 -3 -51 1 -102 10 -128 21 -329 18 -447 -5z m518 -2509 c-17 -33 -50 -80
-73 -104 -49 -52 -143 -128 -132 -107 4 8 -1 5 -11 -8 -10 -12 -28 -24 -39
-26 -12 -3 -43 -12 -70 -21 -27 -9 -63 -18 -80 -19 -17 -2 -35 -6 -41 -9 -39
-24 -375 -30 -463 -8 -98 25 -219 87 -127 66 41 -9 396 -22 391 -14 -2 3 22 9
54 12 87 9 226 53 339 107 56 26 104 46 107 42 3 -3 6 -1 6 5 0 6 17 22 38 35
20 14 57 44 82 66 25 23 46 42 48 42 2 0 -11 -27 -29 -59z"/>
<path d="M13404 8160 c-152 -20 -267 -73 -346 -160 -61 -66 -71 -80 -77 -100
-2 -8 -10 -37 -17 -65 -20 -72 -17 -151 12 -362 17 -120 27 -237 28 -323 1
-121 -2 -140 -23 -187 -25 -56 -54 -89 -70 -79 -5 4 -12 2 -16 -4 -3 -5 -26
-10 -51 -10 -60 0 -84 -24 -85 -87 -1 -27 0 -52 1 -58 2 -5 18 -91 37 -190 32
-167 34 -190 29 -325 -3 -80 -6 -152 -7 -160 0 -8 -10 -80 -20 -159 -27 -204
-25 -292 7 -388 64 -187 171 -389 227 -428 57 -40 124 2 152 97 8 30 26 117
40 194 41 238 116 537 151 607 14 26 54 39 54 16 0 -5 5 -7 10 -4 13 8 135
-54 229 -118 227 -153 343 -255 553 -487 l86 -95 -10 60 c-11 65 -5 281 12
490 12 143 3 266 -25 350 -28 83 -53 102 -245 189 -126 57 -180 95 -180 128 0
25 38 60 136 123 44 29 90 64 101 78 11 15 24 23 28 19 3 -4 5 -2 4 3 -2 6 8
28 23 50 189 296 223 753 76 1050 -62 126 -166 223 -288 270 -148 57 -382 85
-536 65z m384 -765 c16 -16 -129 -172 -149 -159 -5 3 -9 1 -9 -3 0 -5 -31 -27
-68 -50 -140 -87 -277 -117 -318 -72 -28 32 -25 132 7 195 27 53 60 82 110 95
32 8 419 3 427 -6z"/>
<path d="M10888 4850 c-41 -32 -53 -96 -52 -280 0 -91 6 -212 12 -270 21 -194
33 -556 23 -695 -18 -234 -35 -254 -280 -325 -62 -18 -128 -43 -146 -55 l-32
-23 -7 82 c-3 44 -6 215 -6 378 0 399 -19 617 -70 803 -32 119 -118 310 -160
357 -38 42 -39 43 -67 28 -45 -25 -51 -51 -56 -250 -6 -194 -23 -341 -82 -694
-20 -115 -49 -320 -65 -457 -34 -284 -64 -437 -94 -482 -12 -18 -50 -51 -86
-75 -91 -59 -135 -108 -139 -154 -4 -51 24 -109 130 -270 149 -227 162 -281
124 -528 -35 -234 -2 -306 205 -450 41 -28 86 -64 99 -78 13 -15 20 -20 16
-12 -3 8 9 -3 29 -25 45 -50 58 -44 105 48 31 62 34 75 36 170 1 56 -4 158
-12 227 -13 118 -13 330 0 395 3 17 11 44 18 60 7 17 12 33 11 37 -5 22 180
134 201 122 6 -4 9 -4 5 1 -10 11 71 47 89 40 8 -2 12 -1 9 4 -6 10 26 21 62
21 37 0 43 -36 36 -209 -6 -140 -5 -164 15 -239 55 -211 199 -458 346 -594 45
-42 72 -55 87 -40 6 6 10 186 12 458 3 561 20 769 69 857 35 64 117 105 281
144 174 41 185 66 115 263 l-42 115 -4 205 c-4 201 -14 280 -34 280 -6 0 -8 4
-5 9 3 5 -25 8 -62 7 -62 -1 -74 -5 -157 -53 -50 -29 -100 -53 -112 -53 -31 0
-39 37 -58 269 -19 230 -40 362 -93 571 -47 184 -94 303 -138 348 -37 38 -43
38 -76 12z"/>
<path d="M4234 4744 c-22 -14 -56 -49 -75 -77 -19 -27 -38 -55 -44 -61 -5 -6
-11 -16 -12 -21 -1 -6 -22 -55 -46 -110 -25 -55 -75 -178 -112 -272 -37 -95
-71 -173 -75 -173 -3 0 -7 -6 -7 -13 0 -18 -115 -187 -151 -221 -18 -16 -35
-25 -42 -21 -25 15 -223 354 -232 396 -2 8 -6 16 -9 19 -9 8 -54 97 -118 232
-99 211 -173 308 -234 308 -38 0 -75 -56 -92 -138 -42 -202 -62 -280 -151
-582 -52 -179 -118 -408 -145 -510 -28 -102 -53 -192 -56 -200 -3 -8 -7 -22
-8 -30 -10 -66 -71 -336 -77 -341 -5 -3 -21 -39 -37 -80 -93 -242 -87 -494 18
-787 85 -236 237 -564 287 -617 33 -35 82 -34 118 4 34 35 51 92 77 251 17
107 125 706 229 1270 32 176 46 230 60 230 19 0 50 -56 120 -216 149 -341 243
-507 312 -548 24 -15 31 -15 61 -2 62 26 100 91 181 314 66 181 99 251 139
292 16 17 31 29 32 28 2 -2 13 -66 25 -143 56 -365 154 -778 240 -1012 11 -29
16 -53 12 -53 -4 0 -2 -4 3 -8 6 -4 21 -32 33 -62 36 -86 108 -194 163 -244
80 -72 222 -108 299 -76 59 25 85 119 69 255 -5 47 -64 348 -130 668 -184 888
-314 1549 -353 1788 -58 357 -98 504 -153 561 -34 35 -67 36 -119 2z m-1196
-452 c5 -74 -14 -238 -29 -248 -5 -3 -7 -9 -4 -13 7 -12 -25 -123 -135 -461
-54 -168 -114 -361 -134 -430 -19 -69 -42 -141 -50 -161 -17 -40 -41 -65 -50
-51 -7 12 30 197 74 372 35 140 178 639 188 655 3 5 7 16 8 25 0 8 24 96 53
195 28 99 51 187 51 195 0 10 3 11 11 3 6 -6 14 -43 17 -81z"/>
<path d="M6016 4756 c-90 -34 -179 -175 -230 -366 -46 -172 -115 -512 -146
-720 -48 -320 -85 -483 -116 -515 -28 -28 -54 -36 -157 -50 -139 -18 -173 -33
-197 -88 -45 -101 -66 -276 -42 -339 18 -44 41 -50 167 -42 108 6 113 6 124
-14 15 -28 14 -72 -3 -162 -39 -205 -56 -745 -28 -857 13 -49 55 -115 77 -120
6 -1 37 -14 70 -27 70 -30 169 -35 214 -11 32 16 56 61 72 132 6 26 12 176 15
333 7 478 31 766 69 840 16 31 72 56 106 47 10 -3 17 -2 14 3 -8 13 249 35
311 25 56 -8 69 -32 119 -219 25 -95 60 -191 110 -300 80 -179 94 -214 161
-431 55 -178 107 -312 147 -378 64 -104 133 -64 235 138 115 227 120 344 28
620 -64 191 -146 460 -156 515 -10 51 -9 56 11 73 15 12 36 17 68 16 57 -3
119 9 148 27 33 21 46 85 40 191 -8 116 -42 222 -77 241 -19 10 -60 12 -175 7
-179 -7 -198 -2 -225 58 -20 44 -29 76 -160 567 -82 303 -131 454 -185 560
-60 120 -130 201 -202 236 -49 23 -156 29 -207 10z m167 -1149 c91 -215 110
-297 84 -359 -21 -50 -65 -72 -147 -72 -36 0 -78 3 -93 7 -27 7 -28 9 -21 55
3 26 24 117 46 202 22 85 47 183 56 218 9 34 18 62 21 62 3 0 27 -51 54 -113z
m283 -189 c9 -29 50 -125 91 -213 115 -248 185 -414 179 -424 -4 -5 -2 -11 2
-13 25 -9 207 -726 190 -744 -7 -6 -109 302 -183 551 -76 252 -87 283 -160
455 -62 146 -107 270 -99 270 4 0 2 6 -4 13 -10 11 -41 126 -42 150 0 20 10 2
26 -45z"/>
<path d="M13435 4752 c-199 -21 -466 -69 -625 -112 -101 -27 -205 -52 -230
-55 -25 -4 -58 -9 -74 -12 -18 -3 -26 -1 -22 5 4 6 -2 8 -13 5 -16 -4 -26 8
-55 66 -26 51 -43 72 -60 77 -29 7 -80 -18 -101 -50 -21 -32 -125 -285 -125
-304 0 -8 20 -50 46 -93 40 -70 46 -87 55 -171 15 -137 -4 -451 -42 -707 -24
-159 -30 -175 -75 -222 -20 -21 -39 -53 -45 -75 -5 -22 -8 -172 -8 -334 1
-321 -8 -403 -54 -504 -24 -51 -28 -55 -120 -99 -53 -25 -100 -55 -106 -66
-16 -28 -14 -111 4 -160 8 -22 11 -41 7 -41 -4 0 -2 -4 4 -8 13 -8 47 -72 39
-72 -2 0 2 -8 10 -17 8 -10 34 -46 57 -80 62 -89 179 -215 234 -252 33 -22 59
-31 87 -31 51 0 184 63 342 162 121 76 415 235 415 224 0 -3 8 1 18 10 28 25
146 97 160 97 6 0 10 2 8 5 -3 2 31 31 75 64 140 105 243 249 269 374 24 117
-12 168 -115 162 -33 -1 -62 -5 -65 -8 -5 -6 -309 -100 -390 -120 -25 -7 -115
-34 -200 -62 -85 -27 -178 -52 -206 -55 l-51 -5 -7 33 c-4 19 -9 75 -13 126
-5 73 -3 101 11 136 17 44 56 74 78 61 6 -4 8 -3 5 3 -4 6 21 15 64 22 78 13
122 33 253 115 49 31 93 53 99 49 5 -3 7 -2 4 4 -8 13 130 86 261 139 56 23
102 40 102 38 0 -5 48 36 76 66 33 35 37 68 20 162 -8 46 -18 119 -22 163 -5
44 -8 82 -8 85 -3 22 -51 82 -71 90 -61 23 -178 -1 -371 -76 -71 -28 -136 -47
-163 -48 l-46 -1 -3 140 c-5 242 9 287 108 337 75 39 164 55 391 73 202 16
334 37 379 60 15 8 37 30 51 49 13 20 28 36 32 36 5 0 5 5 2 10 -3 6 -1 10 6
10 7 0 10 3 7 6 -4 3 3 26 14 51 41 92 60 177 65 294 5 102 3 121 -15 161 -31
70 -57 80 -205 76 -67 -1 -135 -4 -152 -6z m-957 -445 c3 -58 -5 -137 -27
-267 -16 -102 -39 -275 -51 -385 -70 -676 -155 -1154 -244 -1375 l-26 -65 5
45 c2 25 23 161 45 303 89 568 183 1268 225 1677 17 163 27 193 54 165 11 -11
17 -40 19 -98z"/>
<path d="M14163 4728 c-4 -7 -9 -157 -9 -333 -1 -176 -2 -329 -4 -340 -1 -11
-10 -113 -21 -226 -18 -193 -49 -402 -83 -564 -80 -381 -110 -606 -110 -835 1
-209 14 -301 54 -381 25 -48 466 -495 525 -531 49 -30 91 -39 122 -25 32 14
35 33 23 147 -15 153 -12 590 5 781 25 260 49 395 80 434 15 20 15 20 36 -5
30 -36 80 -137 155 -318 88 -211 139 -366 159 -487 33 -198 93 -314 225 -438
39 -35 70 -63 70 -62 0 2 30 -17 67 -41 37 -24 71 -44 76 -44 4 0 5 -5 1 -12
-4 -7 -3 -8 5 -4 6 4 17 4 24 -2 7 -5 38 -23 70 -41 l57 -33 -6 124 c-5 107 1
269 21 558 3 41 21 221 40 400 79 740 85 1043 30 1343 -38 203 -147 433 -250
527 l-28 25 6 -92 c15 -212 19 -774 8 -968 -11 -183 -39 -418 -60 -505 -15
-59 -12 301 4 565 23 374 30 711 16 855 -26 263 -62 362 -177 478 -53 53 -67
62 -98 62 -47 0 -51 -16 -50 -205 8 -792 7 -922 -9 -1014 -17 -102 -36 -137
-61 -111 -8 8 -35 65 -61 125 -105 244 -247 513 -382 724 -196 304 -427 535
-470 469z"/>
<path d="M8915 4694 c-265 -39 -498 -159 -713 -368 -95 -92 -177 -198 -283
-366 -79 -125 -229 -410 -229 -435 0 -8 -4 -15 -8 -15 -5 0 -9 -6 -9 -12 -1
-7 -22 -84 -47 -171 -42 -143 -112 -478 -120 -567 -29 -344 -29 -481 0 -700 9
-69 50 -195 90 -278 76 -158 204 -262 379 -307 59 -16 296 -35 289 -24 -1 3
34 11 79 18 246 37 578 207 798 409 31 28 59 49 63 47 3 -3 4 -2 1 2 -3 3 25
38 62 78 71 74 124 135 118 135 -2 0 5 19 15 42 29 63 26 104 -9 139 -25 25
-37 29 -83 29 -56 0 -124 -26 -194 -74 -21 -14 -42 -22 -48 -19 -6 3 -8 3 -4
-2 7 -7 -73 -70 -188 -148 -47 -32 -175 -71 -210 -64 -13 2 -21 0 -18 -4 9
-15 -128 -10 -191 6 -33 9 -84 30 -114 48 -53 31 -145 133 -135 149 3 4 1 8
-4 8 -5 0 -19 22 -31 49 -92 215 -75 547 45 861 43 113 139 301 170 335 12 13
20 25 18 27 -9 10 163 222 242 298 129 124 207 176 358 237 213 87 314 159
352 249 19 44 18 128 -2 193 -21 74 -88 144 -163 172 -55 21 -205 33 -276 23z"/>
</g>
</svg>
